<svg width="19" height="19" viewBox="0 0 19 19" fill="none" xmlns="http://www.w3.org/2000/svg">
<rect x="0.193604" y="0.5" width="18" height="18" rx="9" fill="#006298"/>
<path fill-rule="evenodd" clip-rule="evenodd" d="M4.14682 4.45272C3.7984 4.80113 3.7984 5.36603 4.14682 5.71444L7.93234 9.49997L4.14681 13.2855C3.79839 13.6339 3.79839 14.1988 4.14681 14.5472C4.49523 14.8956 5.06012 14.8956 5.40854 14.5472L9.19407 10.7617L12.9789 14.5465C13.3273 14.8949 13.8922 14.8949 14.2406 14.5465C14.589 14.1981 14.589 13.6332 14.2406 13.2848L10.4558 9.49997L14.2406 5.71515C14.589 5.36673 14.589 4.80184 14.2406 4.45342C13.8922 4.105 13.3273 4.105 12.9789 4.45342L9.19407 8.23824L5.40854 4.45272C5.06013 4.1043 4.49523 4.1043 4.14682 4.45272Z" fill="white"/>
</svg>
