<svg width="29" height="40" viewBox="0 0 29 40" fill="none" xmlns="http://www.w3.org/2000/svg">
<path d="M28.8118 23.3198C28.7919 21.5437 27.3799 20.1045 25.6466 20.1045C25.2741 20.1045 24.9219 20.1828 24.5897 20.3053C24.5305 18.7286 23.1439 17.4615 21.4355 17.4615C20.9063 17.4615 20.4139 17.5947 19.9741 17.8095C19.432 16.9103 18.4089 16.2938 17.2237 16.2938C16.8551 16.2938 16.5065 16.3637 16.1782 16.4717V11.9245C16.1782 10.3009 14.7583 8.97949 13.0125 8.97949C11.2673 8.97949 9.84732 10.3005 9.84732 11.9245V24.0564C8.0449 24.1376 6.62293 25.0936 6.22109 26.637C5.6924 28.6668 5.86597 30.9571 6.73786 33.4429C7.39488 35.3156 8.92123 37.1978 11.4037 39.1956C11.6031 39.3561 11.8473 39.4344 12.0911 39.4344C12.391 39.4344 12.6879 39.3157 12.8978 39.084C13.2778 38.6646 13.2245 38.0322 12.7794 37.6748C10.6303 35.9452 9.27451 34.3094 8.75018 32.8157C7.99469 30.6615 7.84051 28.7963 8.27869 27.1145C8.45824 26.4268 9.11027 26.1106 9.84683 26.0515V27.8454C9.84683 28.3976 10.3213 28.8451 10.9062 28.8451C11.4916 28.8451 11.9661 28.3976 11.9661 27.8454L11.9671 11.9246C11.9671 11.403 12.4361 10.9789 13.0125 10.9789C13.5895 10.9789 14.0585 11.403 14.0585 11.9246L14.059 23.2336C14.059 23.7858 14.5335 24.2333 15.1189 24.2333C15.7043 24.2333 16.1788 23.7857 16.1788 23.2336V19.2386C16.1788 18.7169 16.6473 18.2928 17.2242 18.2928C17.8007 18.2928 18.2697 18.7169 18.2697 19.2386V23.781C18.2697 24.3327 18.7442 24.7802 19.3296 24.7802C19.915 24.7802 20.3894 24.3327 20.3894 23.781L20.3904 23.2335V20.4066C20.3904 19.885 20.859 19.4604 21.4354 19.4604C22.0118 19.4604 22.4804 19.8845 22.4804 20.4066V24.6817C22.4804 25.2339 22.9548 25.6814 23.5402 25.6814C24.1256 25.6814 24.6001 25.2339 24.6001 24.6817V23.3583C24.6001 22.6781 25.0796 22.1044 25.6461 22.1044C26.2131 22.1044 26.6915 22.6781 26.6915 23.3583C26.6915 23.3832 26.6925 23.4071 26.6945 23.4324C26.702 23.5173 27.3257 32.0078 24.4086 38.0202C24.1649 38.5226 24.3992 39.1156 24.9314 39.3454C25.0736 39.4069 25.2243 39.4355 25.3715 39.4355C25.7729 39.4355 26.1574 39.2188 26.3364 38.8524C29.4097 32.5147 28.8636 24.0256 28.8118 23.3195L28.8118 23.3198Z" fill="white"/>
<path d="M8.12694 11.8815C8.12694 11.3298 7.65245 10.8818 7.06756 10.8818H1.86262C1.27722 10.8818 0.802734 11.3298 0.802734 11.8815C0.802734 12.4332 1.27723 12.8807 1.86262 12.8807H7.06756C7.65296 12.8812 8.12694 12.4332 8.12694 11.8815Z" fill="white"/>
<path d="M17.8953 11.8815C17.8953 12.4332 18.3693 12.8807 18.9551 12.8807H24.1601C24.7455 12.8807 25.22 12.4332 25.22 11.8815C25.22 11.3298 24.7455 10.8818 24.1601 10.8818H18.9551C18.3692 10.8818 17.8953 11.3298 17.8953 11.8815Z" fill="white"/>
<path d="M13.0103 7.27441C13.5957 7.27441 14.0697 6.82687 14.0697 6.2752V1.36589C14.0697 0.81374 13.5952 0.366211 13.0103 0.366211C12.4249 0.366211 11.9504 0.813752 11.9504 1.36589V6.2752C11.9504 6.82688 12.4249 7.27441 13.0103 7.27441Z" fill="white"/>
<path d="M8.06034 8.62527C8.26725 8.82089 8.53831 8.918 8.80987 8.918C9.08143 8.918 9.35249 8.82089 9.5594 8.62527C9.9737 8.2345 9.9737 7.60213 9.5594 7.21177L5.87893 3.74034C5.46462 3.34957 4.79368 3.34957 4.38031 3.74034C3.966 4.13112 3.966 4.76348 4.38031 5.15385L8.06034 8.62527Z" fill="white"/>
<path d="M17.2152 8.918C17.4858 8.918 17.7574 8.82089 17.9643 8.62527L21.6447 5.15385C22.059 4.76307 22.059 4.13118 21.6447 3.74034C21.2304 3.34957 20.56 3.34957 20.1461 3.74034L16.4656 7.21177C16.0508 7.60207 16.0508 8.23444 16.4656 8.62527C16.673 8.82089 16.9441 8.918 17.2152 8.918H17.2152Z" fill="white"/>
</svg>
