<svg width="18" height="18" viewBox="0 0 18 18" fill="none" xmlns="http://www.w3.org/2000/svg">
<path d="M5.25215 6.44201L8.34811 4.6493C8.54623 4.53487 8.77117 4.47461 9.00017 4.47461C9.22916 4.47461 9.4541 4.53487 9.65222 4.6493L12.748 6.44201C12.7602 6.44914 12.7703 6.45932 12.7773 6.47154C12.7843 6.48377 12.788 6.49761 12.788 6.5117C12.788 6.52578 12.7843 6.53963 12.7773 6.55185C12.7703 6.56407 12.7602 6.57426 12.748 6.58138L9.04061 8.75445C9.02814 8.76177 9.01393 8.76563 8.99946 8.76563C8.98498 8.76563 8.97077 8.76177 8.9583 8.75445L5.25174 6.58138C5.23957 6.57422 5.22949 6.56401 5.2225 6.55176C5.2155 6.53952 5.21185 6.52567 5.21189 6.51158C5.21193 6.49749 5.21567 6.48366 5.22273 6.47146C5.22979 6.45925 5.23993 6.4491 5.25215 6.44201ZM9.00006 6.89912C9.26867 6.89912 9.4866 6.75449 9.4866 6.57593C9.4866 6.39737 9.26867 6.25274 9.00006 6.25274C8.73146 6.25274 8.51353 6.39737 8.51353 6.57593C8.51353 6.75449 8.73146 6.89912 9.00006 6.89912ZM9.36496 9.29903L13.095 7.13101C13.1074 7.12393 13.1213 7.12019 13.1356 7.12019C13.1498 7.12019 13.1638 7.12391 13.1761 7.13099C13.1884 7.13808 13.1987 7.14826 13.2058 7.16053C13.2129 7.17281 13.2167 7.18673 13.2167 7.2009V10.714C13.2164 10.8833 13.1716 11.0495 13.0868 11.1962C13.002 11.3429 12.8802 11.4649 12.7334 11.5501L9.44605 13.5141C9.43373 13.5212 9.41975 13.5249 9.40553 13.5249C9.3913 13.5249 9.37732 13.5212 9.365 13.5141C9.35267 13.507 9.34244 13.4968 9.33531 13.4846C9.32819 13.4723 9.32443 13.4584 9.32442 13.4442V9.36892C9.32443 9.35475 9.32819 9.34084 9.3353 9.32857C9.34242 9.3163 9.35265 9.30612 9.36496 9.29903ZM12.2436 11.2622C12.4228 11.2622 12.568 11.0451 12.568 10.7774C12.568 10.5098 12.4228 10.2926 12.2436 10.2926C12.0644 10.2926 11.9193 10.5098 11.9193 10.7774C11.9193 11.0451 12.0644 11.2622 12.2436 11.2622ZM10.2975 10.6158C10.4767 10.6158 10.6218 10.3987 10.6218 10.1311C10.6218 9.86341 10.4767 9.64626 10.2975 9.64626C10.1183 9.64626 9.97313 9.86341 9.97313 10.1311C9.97313 10.3987 10.1183 10.6158 10.2975 10.6158ZM4.90509 7.13162L8.63516 9.31418C8.64745 9.32125 8.65766 9.3314 8.66477 9.34363C8.67189 9.35586 8.67566 9.36974 8.67571 9.38387V13.4438C8.67569 13.458 8.67194 13.4719 8.66481 13.4841C8.65769 13.4964 8.64745 13.5066 8.63513 13.5137C8.6228 13.5208 8.60883 13.5245 8.5946 13.5245C8.58037 13.5245 8.5664 13.5208 8.55408 13.5137L5.26694 11.5497C5.12018 11.4645 4.99833 11.3426 4.91351 11.196C4.82869 11.0494 4.78385 10.8832 4.78345 10.714V7.20212C4.78336 7.18789 4.78704 7.17389 4.79412 7.16153C4.8012 7.14918 4.81143 7.1389 4.82377 7.13175C4.83611 7.1246 4.85013 7.12082 4.86441 7.12079C4.87869 7.12077 4.89272 7.12451 4.90509 7.13162ZM7.70265 12.3934C7.88185 12.3934 8.027 12.1763 8.027 11.9086C8.027 11.641 7.88185 11.4238 7.70265 11.4238C7.52344 11.4238 7.37829 11.641 7.37829 11.9086C7.37829 12.1763 7.52344 12.3934 7.70265 12.3934ZM7.70265 10.6158C7.88185 10.6158 8.027 10.3987 8.027 10.1311C8.027 9.86341 7.88185 9.64626 7.70265 9.64626C7.52344 9.64626 7.37829 9.86341 7.37829 10.1311C7.37829 10.3987 7.52344 10.6158 7.70265 10.6158ZM5.75652 11.2622C5.93572 11.2622 6.08087 11.0451 6.08087 10.7774C6.08087 10.5098 5.93572 10.2926 5.75652 10.2926C5.57731 10.2926 5.43216 10.5098 5.43216 10.7774C5.43216 11.0451 5.57731 11.2622 5.75652 11.2622ZM5.75652 9.48467C5.93572 9.48467 6.08087 9.26752 6.08087 8.99988C6.08087 8.73223 5.93572 8.51509 5.75652 8.51509C5.57731 8.51509 5.43216 8.73223 5.43216 8.99988C5.43216 9.26752 5.57731 9.48467 5.75652 9.48467Z" fill="white"/>
<path d="M1.881 12.159H5.958C6.19669 12.159 6.42561 12.2538 6.5944 12.4226C6.76318 12.5914 6.858 12.8203 6.858 13.059C6.858 13.2977 6.76318 13.5266 6.5944 13.6954C6.42561 13.8642 6.19669 13.959 5.958 13.959H3.798C4.79075 14.9965 6.07104 15.7134 7.47435 16.0177C8.87767 16.3219 10.3399 16.1996 11.6732 15.6665C13.0065 15.1334 14.1499 14.2138 14.9566 13.0259C15.7632 11.8379 16.1962 10.4359 16.2 9C16.2 8.7613 16.2948 8.53239 16.4636 8.3636C16.6324 8.19482 16.8613 8.1 17.1 8.1C17.3387 8.1 17.5676 8.19482 17.7364 8.3636C17.9052 8.53239 18 8.7613 18 9C17.9952 10.7575 17.476 12.4752 16.5064 13.941C15.5367 15.4069 14.1591 16.5567 12.5435 17.2487C10.928 17.9407 9.14514 18.1445 7.41508 17.835C5.68503 17.5255 4.08345 16.7162 2.808 15.507V17.1C2.808 17.3387 2.71318 17.5676 2.5444 17.7364C2.37561 17.9052 2.1467 18 1.908 18C1.66931 18 1.44039 17.9052 1.2716 17.7364C1.10282 17.5676 1.008 17.3387 1.008 17.1V13.05C1.01022 12.8175 1.10236 12.5948 1.2651 12.4287C1.42785 12.2626 1.64856 12.166 1.881 12.159ZM9 0C11.3073 0.00658097 13.5239 0.899023 15.192 2.493V0.9C15.192 0.661305 15.2868 0.432387 15.4556 0.263604C15.6244 0.0948211 15.8533 0 16.092 0C16.3307 0 16.5596 0.0948211 16.7284 0.263604C16.8972 0.432387 16.992 0.661305 16.992 0.9V4.95C16.992 5.18869 16.8972 5.41761 16.7284 5.5864C16.5596 5.75518 16.3307 5.85 16.092 5.85H12.042C11.8033 5.85 11.5744 5.75518 11.4056 5.5864C11.2368 5.41761 11.142 5.18869 11.142 4.95C11.142 4.71131 11.2368 4.48239 11.4056 4.3136C11.5744 4.14482 11.8033 4.05 12.042 4.05H14.202C13.2098 3.01308 11.9303 2.29635 10.5278 1.9918C9.12536 1.68724 7.66387 1.80877 6.33095 2.34078C4.99804 2.87278 3.85453 3.79099 3.04719 4.97754C2.23986 6.1641 1.80554 7.56485 1.8 9C1.8 9.23869 1.70518 9.46761 1.5364 9.6364C1.36761 9.80518 1.1387 9.9 0.900002 9.9C0.661306 9.9 0.432388 9.80518 0.263605 9.6364C0.0948219 9.46761 0 9.23869 0 9C0 7.8181 0.23279 6.64778 0.685083 5.55585C1.13737 4.46392 1.80031 3.47177 2.63604 2.63604C3.47177 1.80031 4.46392 1.13738 5.55585 0.685084C6.64778 0.232792 7.8181 0 9 0Z" fill="white"/>
</svg>
