<svg width="24" height="24" viewBox="0 0 24 24" fill="none" xmlns="http://www.w3.org/2000/svg">
<path d="M12.71 12.0003L9.17 15.5403C8.98374 15.7277 8.8792 15.9811 8.8792 16.2453C8.8792 16.5095 8.98374 16.7629 9.17 16.9503C9.26296 17.044 9.37356 17.1184 9.49542 17.1692C9.61728 17.22 9.74798 17.2461 9.88 17.2461C10.012 17.2461 10.1427 17.22 10.2646 17.1692C10.3864 17.1184 10.497 17.044 10.59 16.9503L14.83 12.7103C14.9237 12.6173 14.9981 12.5067 15.0489 12.3849C15.0997 12.263 15.1258 12.1323 15.1258 12.0003C15.1258 11.8683 15.0997 11.7376 15.0489 11.6157C14.9981 11.4939 14.9237 11.3833 14.83 11.2903L10.59 7.0003C10.4966 6.90761 10.3857 6.83429 10.2639 6.78452C10.1421 6.73476 10.0116 6.70953 9.88 6.71029C9.74839 6.70953 9.61793 6.73476 9.49609 6.78452C9.37425 6.83429 9.26344 6.90761 9.17 7.0003C8.98374 7.18766 8.8792 7.44111 8.8792 7.7053C8.8792 7.96948 8.98374 8.22293 9.17 8.4103L12.71 12.0003Z" fill="white"/>
</svg>
